<svg width="119" height="119" viewBox="0 0 119 119" fill="none" xmlns="http://www.w3.org/2000/svg">
<path d="M111.562 24.1719C111.56 21.7071 110.579 19.3441 108.836 17.6013C107.093 15.8584 104.73 14.878 102.266 14.875H16.7344C14.2696 14.878 11.9066 15.8584 10.1638 17.6013C8.42089 19.3441 7.44045 21.7071 7.4375 24.1719V92.9688H3.71875V94.8281C3.7217 97.2929 4.70214 99.6559 6.445 101.399C8.18787 103.142 10.5508 104.122 13.0156 104.125H105.984C108.449 104.122 110.812 103.142 112.555 101.399C114.298 99.6559 115.278 97.2929 115.281 94.8281V92.9688H111.562V24.1719ZM11.1562 24.1719C11.1562 22.6925 11.7439 21.2736 12.79 20.2275C13.8361 19.1814 15.255 18.5938 16.7344 18.5938H102.266C103.745 18.5938 105.164 19.1814 106.21 20.2275C107.256 21.2736 107.844 22.6925 107.844 24.1719V92.9688H11.1562V24.1719ZM105.984 100.406H13.0156C11.8623 100.405 10.7377 100.047 9.79591 99.3809C8.85416 98.7151 8.14143 97.7743 7.75545 96.6875H111.245C110.859 97.7743 110.146 98.7151 109.204 99.3809C108.262 100.047 107.138 100.405 105.984 100.406Z" fill="white"/>
<path d="M14.875 89.25H104.125V26.0312H14.875V89.25ZM18.5938 29.75H100.406V85.5312H18.5938V29.75Z" fill="white"/>
<path d="M59.5 24.1719C59.7449 24.1743 59.9878 24.1279 60.2145 24.0354C60.4412 23.9428 60.6472 23.806 60.8203 23.6328C60.9935 23.4596 61.1303 23.2537 61.2229 23.027C61.3155 22.8002 61.3619 22.5573 61.3594 22.3125C61.3564 22.0695 61.3059 21.8295 61.2106 21.6059C61.1208 21.3784 60.9882 21.1701 60.8202 20.9923C60.4606 20.6605 59.9893 20.4763 59.5 20.4763C59.0107 20.4763 58.5394 20.6605 58.1798 20.9923C58.0118 21.1701 57.8792 21.3784 57.7894 21.6059C57.6941 21.8295 57.6436 22.0695 57.6406 22.3125C57.6469 22.8049 57.8396 23.2766 58.1798 23.6326C58.534 23.9758 59.0069 24.1689 59.5 24.1719Z" fill="white"/>
<path d="M30.2948 34.0135L23.4021 40.9063L30.2948 47.799L32.924 45.1698L28.6604 40.9063L32.924 36.6427L30.2948 34.0135Z" fill="white"/>
<path d="M47.7988 47.799L54.6915 40.9063L47.7988 34.0135L45.1697 36.6427L49.4332 40.9063L45.1697 45.1698L47.7988 47.799Z" fill="white"/>
<path d="M30.2948 67.4823L23.4021 74.375L30.2948 81.2677L32.924 78.6386L28.6604 74.375L32.924 70.1115L30.2948 67.4823Z" fill="white"/>
<path d="M45.1697 70.1115L49.4332 74.375L45.1697 78.6386L47.7988 81.2677L54.6915 74.375L47.7988 67.4823L45.1697 70.1115Z" fill="white"/>
<path d="M42.7656 39.0469H35.3281V42.7656H42.7656V39.0469Z" fill="white"/>
<path d="M39.1454 68.2073L35.4229 79.3632L38.9486 80.5397L42.6712 69.3838L39.1454 68.2073Z" fill="white"/>
<path d="M46.4844 52.0625H39.0469V55.7812H46.4844V52.0625Z" fill="white"/>
<path d="M92.9688 52.0625H50.2031V55.7812H92.9688V52.0625Z" fill="white"/>
<path d="M46.4844 59.5H39.0469V63.2188H46.4844V59.5Z" fill="white"/>
<path d="M92.9688 59.5H50.2031V63.2188H92.9688V59.5Z" fill="white"/>
</svg>
