<?xml version="1.0"?>
<svg xmlns="http://www.w3.org/2000/svg" viewBox="0 0 64 64" width="512" height="512"><g id="Outline"><path d="M60,21a3,3,0,0,0-3-3H56V5a3,3,0,0,0-3-3H11A3,3,0,0,0,8,5V18H7a3,3,0,0,0-3,3V56H2v3a3,3,0,0,0,3,3H59a3,3,0,0,0,3-3V56H60ZM10,5a1,1,0,0,1,1-1H53a1,1,0,0,1,1,1v5H10Zm44,7V51a1,1,0,0,1-1,1H11a1,1,0,0,1-1-1V12ZM6,21a1,1,0,0,1,1-1H8V51a3,3,0,0,0,3,3H53a3,3,0,0,0,3-3V20h1a1,1,0,0,1,1,1V56H6ZM60,59a1,1,0,0,1-1,1H5a1,1,0,0,1-1-1V58H60Z"/><path d="M13.71,6.29a1.032,1.032,0,0,0-.33-.21,1,1,0,0,0-.76,0,1.032,1.032,0,0,0-.33.21,1,1,0,0,0,1.42,1.42,1.032,1.032,0,0,0,.21-.33.943.943,0,0,0,0-.76A1.032,1.032,0,0,0,13.71,6.29Z"/><path d="M17.71,6.29a1.047,1.047,0,0,0-1.42,0,.933.933,0,0,0-.21.33A1,1,0,0,0,16,7a1.033,1.033,0,0,0,.29.71,1.014,1.014,0,0,0,1.42,0A1.033,1.033,0,0,0,18,7a1,1,0,0,0-.08-.38A.933.933,0,0,0,17.71,6.29Z"/><path d="M21.71,6.29A1,1,0,0,0,20,7a1,1,0,0,0,1.71.71,1.155,1.155,0,0,0,.21-.33.943.943,0,0,0,0-.76A1.155,1.155,0,0,0,21.71,6.29Z"/><path d="M16.433,39.91l-2.575,2.575,5.657,5.657,2.575-2.575a12.949,12.949,0,0,0,1.91.79V50h8V46.357a12.949,12.949,0,0,0,1.91-.79l2.575,2.575,5.657-5.657L39.567,39.91a12.949,12.949,0,0,0,.79-1.91H44V33.464l.4.7,5.2-3-1.3-2.244A8.056,8.056,0,0,0,49.413,27H52V21H49.413a8.056,8.056,0,0,0-1.11-1.917l1.3-2.244-5.2-3-1.294,2.242a7.689,7.689,0,0,0-2.216,0L39.6,13.839l-5.2,3,1.3,2.244A8.056,8.056,0,0,0,34.587,21H32V18H24v3.643a12.949,12.949,0,0,0-1.91.79l-2.575-2.575-5.657,5.657,2.575,2.575a12.949,12.949,0,0,0-.79,1.91H12v8h3.643A12.949,12.949,0,0,0,16.433,39.91ZM36.04,23l.212-.715a6.029,6.029,0,0,1,1.392-2.4l.512-.541-1.022-1.77,1.732-1,1.021,1.769.725-.172a5.793,5.793,0,0,1,2.776,0l.725.172,1.021-1.769,1.732,1-1.022,1.77.512.541a6.029,6.029,0,0,1,1.392,2.4L47.96,23H50v2H47.96l-.212.715a6.029,6.029,0,0,1-1.392,2.4l-.512.541,1.022,1.77-1.732,1-1.021-1.769-.725.172a5.793,5.793,0,0,1-2.776,0l-.725-.172-1.021,1.769-1.732-1,1.022-1.77-.512-.541a6.029,6.029,0,0,1-1.392-2.4L36.04,25H34V23ZM14,32h3.168l.194-.75a10.939,10.939,0,0,1,1.17-2.828l.394-.668-2.24-2.239,2.829-2.829,2.239,2.24.668-.394a10.939,10.939,0,0,1,2.828-1.17l.75-.194V20h4v3.168l.75.194a11.082,11.082,0,0,1,1.25.413V27h2.587a8.056,8.056,0,0,0,1.11,1.917L35,30.13a8.192,8.192,0,1,0,.719,1.789L39.6,34.161l1.294-2.242A7.8,7.8,0,0,0,42,32h0v4H38.832l-.194.75a10.939,10.939,0,0,1-1.17,2.828l-.394.668,2.24,2.239-2.829,2.829-2.239-2.24-.668.394a10.939,10.939,0,0,1-2.828,1.17l-.75.194V48H26V44.832l-.75-.194a10.939,10.939,0,0,1-2.828-1.17l-.668-.394-2.239,2.24-2.829-2.829,2.24-2.239-.394-.668a10.939,10.939,0,0,1-1.17-2.828L17.168,36H14Zm20,2a6,6,0,1,1-6-6A6.006,6.006,0,0,1,34,34Z"/><path d="M42,28a4,4,0,1,0-4-4A4,4,0,0,0,42,28Zm0-6a2,2,0,1,1-2,2A2,2,0,0,1,42,22Z"/></g></svg>
