<svg width="256" height="145" xmlns="http://www.w3.org/2000/svg">
 <!-- Created with Method Draw - http://github.com/duopixel/Method-Draw/ -->
 <g>
  <title>background</title>
  <rect fill="#fff" id="canvas_background" height="147" width="258" y="-1" x="-1"/>
  <g display="none" overflow="visible" y="0" x="0" height="100%" width="100%" id="canvasGrid">
   <rect fill="url(#gridpattern)" stroke-width="0" y="0" x="0" height="100%" width="100%"/>
  </g>
 </g>
 <g>
  <title>Layer 1</title>
  <rect stroke="#000" rx="26" id="svg_1" height="136" width="246.999995" y="4.938515" x="5.001221" stroke-width="6.5" fill="#fff"/>
  <line stroke-linecap="null" stroke-linejoin="null" id="svg_2" y2="138.938515" x2="149.001221" y1="5.938515" x1="148.001221" fill-opacity="null" stroke-opacity="null" stroke-width="6.5" stroke="#000" fill="none"/>
  <path id="svg_9" d="m172.75101,34.720204" opacity="0.5" stroke-width="6.5" stroke="#000" fill="#fff"/>
  <rect transform="rotate(-121 188.7508850097656,75.96984100341795) " rx="2" id="svg_13" height="5.499952" width="53.999526" y="73.21986" x="161.751111" fill-opacity="null" stroke-opacity="null" stroke-width="6.5" stroke="#000" fill="#fff"/>
  <rect transform="rotate(121 214.75067138671872,75.46984100341795) " rx="2" id="svg_14" height="5.499952" width="53.999526" y="72.719865" x="187.750883" fill-opacity="null" stroke-opacity="null" stroke-width="6.5" stroke="#000" fill="#fff"/>
  <rect stroke="#000" rx="2" id="svg_16" height="5.499952" width="55.4983" y="51.676424" x="173.750855" fill-opacity="null" stroke-opacity="null" stroke-width="6.5" fill="#fff"/>
  <path d="m190.250854,59.719978c-0.5,0 -0.5,0 -0.5,0c0,0 0,0 -0.5,0c0,0 0,0 -0.999969,0.5c0,0 0,0 0,0.5c0,0 0,0.5 0,0.5c0.5,0.499985 0.5,0.999985 0.5,0.999985c0.499969,0.5 0.499969,0.999985 0.499969,0.999985c0,0.5 0,0.5 0,1c0,0.5 0,0.999985 0,0.999985c0,0 0.385132,0.513382 0.5,1c0.256866,1.088104 1.146454,1.646423 1.5,1.999969c0.353546,0.353546 -0.15329,1.229401 0.5,1.5c0.461914,0.19133 1.532959,0.938812 2.499969,1.499985c1.559204,0.904846 1.999969,1.499985 2.499969,1.999985c0,0 -0.073639,0.586533 0.5,0.999985c0.906982,0.653732 1.999969,1.499985 1.999969,1.499985c0,0 0,0.5 0,0.5c0.5,0.5 0.5,0.5 0.5,0.999985c0,0 0.229401,0.346725 0.5,1c0.191345,0.461929 0,0.499985 0,0.999985c0,0 0,0.5 0,0.5c0,0 0,0.5 0,0.5c0,0 0,0.499985 0,0.499985c0.5,0 0.5,0.5 0.5,0.5c0,0.5 0.146454,0.646439 0.5,0.999985c0.353546,0.353546 0,1 0,1c0.5,0.5 0.5,0.5 0.5,0.999985c0,0 0,0 0,0c0.5,0 0.729401,0.153275 0.999969,-0.499985c0.191345,-0.461945 0.835602,-2.606277 2.5,-4.999969c1.827698,-2.628555 3.357025,-4.605789 4.499939,-5.999939c0.448303,-0.546844 0.709412,-1.709427 1.5,-2.499985c0.790558,-0.790558 1.999969,-1.499985 2.999969,-2.499969c0.5,-0.5 1.146454,-1.146439 1.5,-1.499985c0.353546,-0.353546 0.146454,-0.646454 0.5,-1c0.353546,-0.353531 0.499969,-0.499985 0.499969,-0.499985c0.5,-0.5 0.5,-1 1,-1.5c0,0 0,-0.499985 0,-0.499985c0,0 0,-0.5 0,-0.5c0,0 -0.5,0 -0.5,0c0,0 -0.5,0 -0.5,0c-0.499969,-0.5 -1.999969,-0.5 -3.999939,-0.5c-1,0 -2,0 -3,0c-0.499969,0 -2.007477,0.122177 -2.999969,0c-2.046082,-0.251877 -3.999969,-0.499985 -5.499939,-0.499985c-1,0 -2,0 -2.499969,0c-1,0 -2,0 -3,0c-0.499969,0 -0.911835,-0.243134 -1.999969,-0.5c-0.973236,-0.229752 -1.999969,0 -2.999969,0c-0.5,0 -0.5,0 -0.5,0c-0.5,0 -0.5,0 -0.5,0c0,0 -0.233826,0.599457 0.5,1.999985c1.160278,2.214432 3.15509,3.859436 4.499969,5.499939c1.142914,1.39415 1.999969,1.999985 1.999969,2.499985c0,0.5 0.5,0.999985 0.5,1.499985c0,0 0.5,0 0.5,0c0,0 0.534912,-0.99437 1,-3.999969c0.540649,-3.493896 0.84668,-6.270538 1.499969,-5.999939c0.461945,0.191345 0.246735,0.93927 0.5,2.499985c0.160187,0.987076 -0.247437,3.010193 0,5.999939c0.250854,3.030991 1,3.499969 1,2.999969c0,0 -0.896973,-3.043686 -2,-5.499954c-0.458008,-1.019897 -0.256866,-1.088104 0,0c0.344635,1.459869 0,2.499985 -0.5,2.999985c0,0 -0.047699,-0.988678 -0.499969,-2.999985c-0.559326,-2.487366 -1.646454,-4.146408 -2,-4.499954c-0.353546,-0.353546 -0.749146,0.968979 -1,3.999969c-0.082489,0.996582 0,0.499985 -0.499969,-1c-0.999969,-2.999985 -1.5,-5.499939 -1.5,-6.499939c0,0 0.17157,0.438019 1,2.999969c0.634277,1.961533 1.499969,3.999969 2.499969,4.999954c0.5,0.5 0.808655,0.461945 1,0c0.270599,-0.653275 0.5,-0.999985 0.999969,-0.999985c0,0 0.28476,1.066483 1,2.999969c0.775787,2.097153 1.5,1.999985 2,1.999985c0,0 1.248077,-1.953873 1.499969,-3.999969c0.061096,-0.496231 0,0 0,0c0,2.499985 0.292908,5.292862 1,5.999954c0.353546,0.353546 0.547729,0.011337 1,-1.999985c0.559326,-2.487366 0.999969,-4.499954 1.999969,-4.999954c0,0 0.5,0 0.5,0.999985c0,1 -0.5,1.5 -0.5,1c0,0 0,-3.499969 0,-6.999939c0,-2.999969 0,-3.999969 0,-3.999969c-0.5,1.999985 -1.248779,5.462845 -1.5,7.999939c-0.098541,0.995117 0,0.999985 0,0.999985c0.5,-1.499985 0,-3.999969 -0.499969,-5.499954c-0.5,-1.499985 -1.146454,-1.853531 -1.5,-1.499985c-0.707092,0.707108 -0.707092,3.792862 0,4.499969c0.353546,0.353546 1,-0.5 1,-1.5c0,-0.999985 0,-0.999985 0,-0.999985c0.999969,1.499985 2.040131,5.188156 3.999969,5.999939c0.461914,0.19133 0.748749,0.037109 0.999969,-2.499969c0.295624,-2.985367 0,-4.999954 0,-4.999954c-0.5,0.5 -1.499969,2.999969 -1.499969,5.499954c0,1.499985 0,0.499985 0.999969,-1.499985c0.5,-1 0.5,-1 0.5,-1c0,1 0,1.999985 0,2.999969c0,0 0.5,-0.499985 1,-1.499985c0.5,-0.999985 0.362854,-1.05751 0,0c-0.827423,2.411499 -1.853546,4.146423 -1.5,4.499969c0.353546,0.353546 0.5,-0.5 0.5,-0.5l0,0" id="svg_17" fill-opacity="null" stroke-opacity="null" stroke-width="6.5" stroke="#000" fill="none"/>
 </g>
</svg>