<svg width="256" height="256" xmlns="http://www.w3.org/2000/svg">
 <!-- Created with Method Draw - http://github.com/duopixel/Method-Draw/ -->

 <g>
  <title>background</title>
  <rect x="-1" y="-1" width="258" height="258" id="canvas_background" fill="none"/>
  <g id="canvasGrid" display="none">
   <rect id="svg_3" width="100%" height="100%" x="0" y="0" stroke-width="0" fill="url(#gridpattern)"/>
  </g>
 </g>
 <g>
  <title>Layer 1</title>
  <rect fill="#fff" stroke-width="6.5" x="4.001221" y="57.938515" width="246.999995" height="136" id="svg_1" rx="26" stroke="#000"/>
  <line fill="none" stroke="#000" stroke-width="6.5" stroke-opacity="null" fill-opacity="null" x1="147.001221" y1="58.938515" x2="148.001221" y2="191.938515" id="svg_2" stroke-linejoin="null" stroke-linecap="null"/>
  <path fill="#fff" stroke="#000" stroke-width="6.5" opacity="0.5" d="m171.75101,87.7202" id="svg_9"/>
  <rect fill="#fff" stroke="#000" stroke-width="6.5" stroke-opacity="null" fill-opacity="null" x="160.751111" y="126.21986" width="53.999526" height="5.499952" id="svg_13" rx="2" transform="rotate(-121 187.75088500976562,128.9698333740234) "/>
  <rect fill="#fff" stroke="#000" stroke-width="6.5" stroke-opacity="null" fill-opacity="null" x="186.750883" y="125.719865" width="53.999526" height="5.499952" id="svg_14" rx="2" transform="rotate(121 213.75064086914065,128.4698486328125) "/>
  <rect fill="#fff" stroke-width="6.5" stroke-opacity="null" fill-opacity="null" x="172.750855" y="104.676424" width="55.4983" height="5.499952" id="svg_16" rx="2" stroke="#000"/>
  <path fill="none" stroke="#000" stroke-width="6.5" stroke-opacity="null" fill-opacity="null" id="svg_17" d="m189.25085,112.71998c-0.5,0 -0.5,0 -0.5,0c0,0 0,0 -0.5,0c0,0 0,0 -0.99996,0.5c0,0 0,0 0,0.5c0,0 0,0.5 0,0.5c0.5,0.49998 0.5,0.99998 0.5,0.99998c0.49996,0.5 0.49996,0.99999 0.49996,0.99999c0,0.5 0,0.5 0,1c0,0.5 0,0.99998 0,0.99998c0,0 0.38514,0.51338 0.5,1c0.25687,1.08811 1.14646,1.64643 1.5,1.99997c0.35355,0.35355 -0.15329,1.2294 0.5,1.5c0.46192,0.19133 1.53296,0.93881 2.49997,1.49999c1.55921,0.90484 1.99997,1.49998 2.49997,1.99998c0,0 -0.07364,0.58653 0.5,0.99999c0.90698,0.65373 1.99997,1.49998 1.99997,1.49998c0,0 0,0.5 0,0.5c0.5,0.5 0.5,0.5 0.5,0.99999c0,0 0.2294,0.34672 0.5,1c0.19135,0.46193 0,0.49998 0,0.99998c0,0 0,0.5 0,0.5c0,0 0,0.5 0,0.5c0,0 0,0.49999 0,0.49999c0.5,0 0.5,0.5 0.5,0.5c0,0.5 0.14645,0.64644 0.5,0.99998c0.35355,0.35355 0,1 0,1c0.5,0.5 0.5,0.5 0.5,0.99999c0,0 0,0 0,0c0.5,0 0.7294,0.15327 0.99997,-0.49999c0.19134,-0.46194 0.8356,-2.60628 2.5,-4.99997c1.8277,-2.62855 3.35702,-4.60579 4.49994,-5.99994c0.4483,-0.54684 0.70941,-1.70942 1.5,-2.49998c0.79056,-0.79056 1.99997,-1.49999 2.99997,-2.49997c0.5,-0.5 1.14645,-1.14644 1.5,-1.49999c0.35354,-0.35354 0.14645,-0.64645 0.5,-1c0.35354,-0.35353 0.49997,-0.49998 0.49997,-0.49998c0.5,-0.5 0.5,-1 1,-1.5c0,0 0,-0.49999 0,-0.49999c0,0 0,-0.5 0,-0.5c0,0 -0.5,0 -0.5,0c0,0 -0.5,0 -0.5,0c-0.49997,-0.5 -1.99997,-0.5 -3.99994,-0.5c-1,0 -2,0 -3,0c-0.49997,0 -2.00748,0.12218 -2.99997,0c-2.04608,-0.25187 -3.99997,-0.49998 -5.49994,-0.49998c-1,0 -2,0 -2.49997,0c-1,0 -2,0 -3,0c-0.49997,0 -0.91183,-0.24313 -1.99997,-0.5c-0.97323,-0.22975 -1.99997,0 -2.99997,0c-0.5,0 -0.5,0 -0.5,0c-0.5,0 -0.5,0 -0.5,0c0,0 -0.23382,0.59946 0.5,1.99998c1.16028,2.21444 3.15509,3.85944 4.49997,5.49994c1.14292,1.39415 1.99997,1.99999 1.99997,2.49999c0,0.5 0.5,0.99998 0.5,1.49998c0,0 0.5,0 0.5,0c0,0 0.53491,-0.99437 1,-3.99997c0.54065,-3.49389 0.84668,-6.27053 1.49997,-5.99993c0.46194,0.19134 0.24673,0.93927 0.5,2.49998c0.16019,0.98708 -0.24744,3.01019 0,5.99994c0.25085,3.03099 1,3.49997 1,2.99997c0,0 -0.89697,-3.04369 -2,-5.49996c-0.45801,-1.01989 -0.25687,-1.0881 0,0c0.34463,1.45987 0,2.49999 -0.5,2.99999c0,0 -0.0477,-0.98868 -0.49997,-2.99999c-0.55933,-2.48736 -1.64645,-4.1464 -2,-4.49995c-0.35355,-0.35355 -0.74915,0.96898 -1,3.99997c-0.08249,0.99658 0,0.49998 -0.49997,-1c-0.99997,-2.99999 -1.5,-5.49994 -1.5,-6.49994c0,0 0.17157,0.43802 1,2.99997c0.63428,1.96153 1.49997,3.99997 2.49997,4.99995c0.5,0.5 0.80866,0.46195 1,0c0.2706,-0.65327 0.5,-0.99998 0.99997,-0.99998c0,0 0.28476,1.06648 1,2.99997c0.77579,2.09715 1.5,1.99998 2,1.99998c0,0 1.24808,-1.95387 1.49997,-3.99997c0.06109,-0.49623 0,0 0,0c0,2.49999 0.29291,5.29287 1,5.99996c0.35354,0.35354 0.54773,0.01133 1,-1.99999c0.55932,-2.48736 0.99997,-4.49995 1.99997,-4.99995c0,0 0.5,0 0.5,0.99998c0,1 -0.5,1.5 -0.5,1c0,0 0,-3.49997 0,-6.99994c0,-2.99996 0,-3.99996 0,-3.99996c-0.5,1.99998 -1.24878,5.46284 -1.5,7.99993c-0.09854,0.99512 0,0.99999 0,0.99999c0.5,-1.49999 0,-3.99997 -0.49997,-5.49995c-0.5,-1.49999 -1.14646,-1.85354 -1.5,-1.49999c-0.70709,0.70711 -0.70709,3.79286 0,4.49997c0.35354,0.35355 1,-0.5 1,-1.5c0,-0.99999 0,-0.99999 0,-0.99999c0.99997,1.49999 2.04013,5.18816 3.99997,5.99994c0.46191,0.19133 0.74875,0.03711 0.99997,-2.49997c0.29562,-2.98536 0,-4.99995 0,-4.99995c-0.5,0.5 -1.49997,2.99997 -1.49997,5.49995c0,1.49999 0,0.49999 0.99997,-1.49998c0.5,-1 0.5,-1 0.5,-1c0,1 0,1.99998 0,2.99997c0,0 0.5,-0.49999 1,-1.49999c0.5,-0.99998 0.36285,-1.05751 0,0c-0.82743,2.4115 -1.85355,4.14643 -1.5,4.49997c0.35354,0.35355 0.5,-0.5 0.5,-0.5l0,0"/>
 </g>
</svg>
