<svg width="93" height="94" viewBox="0 0 93 94" fill="none" xmlns="http://www.w3.org/2000/svg">
<g clip-path="url(#clip0)">
<path d="M10.0377 5.28046C7.83527 5.28046 6.0437 7.09201 6.0437 9.31737C6.0437 11.5434 7.83527 13.355 10.0377 13.355C12.2401 13.355 14.0323 11.5434 14.0323 9.31737C14.0323 7.09201 12.2401 5.28046 10.0377 5.28046ZM10.0377 10.6032C9.33665 10.6032 8.76547 10.0266 8.76547 9.31737C8.76547 8.60881 9.33665 8.03221 10.0377 8.03221C10.7394 8.03221 11.3099 8.60881 11.3099 9.31737C11.3099 10.0266 10.7394 10.6032 10.0377 10.6032Z" fill="white"/>
<path d="M20.2076 5.28046C18.0052 5.28046 16.2129 7.09201 16.2129 9.31737C16.2129 11.5434 18.0052 13.355 20.2076 13.355C22.41 13.355 24.2015 11.5434 24.2015 9.31737C24.2015 7.09201 22.41 5.28046 20.2076 5.28046ZM20.2076 10.6032C19.5058 10.6032 18.9354 10.0266 18.9354 9.31737C18.9354 8.60881 19.5058 8.03221 20.2076 8.03221C20.9086 8.03221 21.4798 8.60881 21.4798 9.31737C21.4798 10.0266 20.9086 10.6032 20.2076 10.6032Z" fill="white"/>
<path d="M30.3765 5.28046C28.1741 5.28046 26.3826 7.09201 26.3826 9.31737C26.3826 11.5434 28.1741 13.355 30.3765 13.355C32.5789 13.355 34.3712 11.5434 34.3712 9.31737C34.3712 7.09201 32.5789 5.28046 30.3765 5.28046ZM30.3765 10.6032C29.6755 10.6032 29.1043 10.0266 29.1043 9.31737C29.1043 8.60881 29.6755 8.03221 30.3765 8.03221C31.0783 8.03221 31.6487 8.60881 31.6487 9.31737C31.6487 10.0266 31.0783 10.6032 30.3765 10.6032Z" fill="white"/>
<path d="M91.5353 27.1395C92.2874 27.1395 92.8969 26.5235 92.8969 25.7633L92.9998 6.05428C92.9998 2.71589 90.3128 0 87.0099 0H5.99058C2.68771 0 0 2.71661 0 6.055V72.6198C0 75.6455 2.20736 78.1599 5.07954 78.6045C5.37684 78.6511 5.68123 78.6748 5.99058 78.6748H32.4746V83.6089H28.365C25.6241 83.6089 23.3933 85.8629 23.3933 88.6333V91.6059C23.3933 92.8703 24.4107 93.8987 25.6617 93.8987H32.1525C32.9039 93.8987 33.5133 93.2827 33.5133 92.5225C33.5133 91.763 32.9039 91.1469 32.1525 91.1469H26.1158V88.6333C26.1158 87.3797 27.1247 86.3599 28.365 86.3599H64.532C65.7722 86.3599 66.7812 87.3797 66.7812 88.6333V91.1469H40.6023C39.8509 91.1469 39.2414 91.763 39.2414 92.5225C39.2414 93.2827 39.8509 93.8987 40.6023 93.8987H67.2346C68.4855 93.8987 69.5029 92.8703 69.5029 91.6059V88.6333C69.5029 85.8629 67.2729 83.6089 64.5312 83.6089H60.4216V78.6748H86.9064C87.2157 78.6748 87.5201 78.6511 87.8167 78.6045C90.6896 78.1599 92.8962 75.6455 92.8962 72.6198V34.2932C92.8962 33.533 92.2874 32.917 91.5353 32.917C90.784 32.917 90.1745 33.533 90.1745 34.2932V64.65H47.6281V18.7136H90.1745V25.7633C90.1745 26.5235 90.784 27.1395 91.5353 27.1395ZM2.82252 18.7136H44.9056V64.551H2.82252V18.7136ZM57.6999 83.6089H35.1971V78.6748H57.6999V83.6089ZM90.1745 67.4017V72.6198C90.1745 74.3274 88.8859 75.7366 87.2398 75.9065C87.1299 75.9173 87.0192 75.923 86.9064 75.923H5.99058C5.87777 75.923 5.76637 75.9173 5.6571 75.9065C4.01099 75.7366 2.72248 74.3274 2.72248 72.6198V67.4017H90.1745ZM46.2672 15.9619H2.82252V6.05428C2.82252 4.23341 4.28841 2.75175 6.09063 2.75175H86.9064C88.7086 2.75175 90.1745 4.23341 90.1745 6.055V15.9619H46.2672Z" fill="white"/>
<path d="M8.52004 24.1964H15.416C16.1674 24.1964 16.7769 23.581 16.7769 22.8208C16.7769 22.0614 16.1674 21.4453 15.416 21.4453H8.52004C7.76794 21.4453 7.15845 22.0614 7.15845 22.8208C7.15845 23.581 7.76794 24.1964 8.52004 24.1964Z" fill="white"/>
<path d="M20.1343 24.1964H23.401C24.1524 24.1964 24.7619 23.581 24.7619 22.8208C24.7619 22.0614 24.1524 21.4453 23.401 21.4453H20.1343C19.3822 21.4453 18.7734 22.0614 18.7734 22.8208C18.7734 23.581 19.3822 24.1964 20.1343 24.1964Z" fill="white"/>
<path d="M18.8637 26.3013H14.3269C13.5756 26.3013 12.9661 26.9173 12.9661 27.6775C12.9661 28.437 13.5756 29.053 14.3269 29.053H18.8637C19.6158 29.053 20.2253 28.437 20.2253 27.6775C20.2253 26.9173 19.6158 26.3013 18.8637 26.3013Z" fill="white"/>
<path d="M40.278 31.3314H35.7413C34.9899 31.3314 34.3804 31.9475 34.3804 32.7069C34.3804 33.4664 34.9899 34.0825 35.7413 34.0825H40.278C41.0301 34.0825 41.6389 33.4664 41.6389 32.7069C41.6389 31.9475 41.0301 31.3314 40.278 31.3314Z" fill="white"/>
<path d="M21.677 27.6775C21.677 28.437 22.2865 29.053 23.0379 29.053H33.9264C34.6785 29.053 35.288 28.437 35.288 27.6775C35.288 26.9173 34.6785 26.3013 33.9264 26.3013H23.0379C22.2865 26.3013 21.677 26.9173 21.677 27.6775Z" fill="white"/>
<path d="M17.321 32.7069C17.321 33.4664 17.9305 34.0825 18.6826 34.0825H21.0418C21.7932 34.0825 22.4027 33.4664 22.4027 32.7069C22.4027 31.9475 21.7932 31.3314 21.0418 31.3314H18.6826C17.9305 31.3314 17.321 31.9475 17.321 32.7069Z" fill="white"/>
<path d="M31.5671 34.0825C32.3192 34.0825 32.9287 33.4664 32.9287 32.7069C32.9287 31.9475 32.3192 31.3314 31.5671 31.3314H25.0344C24.2823 31.3314 23.6729 31.9475 23.6729 32.7069C23.6729 33.4664 24.2823 34.0825 25.0344 34.0825H31.5671Z" fill="white"/>
<path d="M16.7769 50.5378C16.7769 49.7776 16.1674 49.1622 15.416 49.1622H8.52004C7.76794 49.1622 7.15845 49.7776 7.15845 50.5378C7.15845 51.2972 7.76794 51.9133 8.52004 51.9133H15.416C16.1674 51.9133 16.7769 51.2972 16.7769 50.5378Z" fill="white"/>
<path d="M20.1343 49.1622C19.3822 49.1622 18.7734 49.7776 18.7734 50.5378C18.7734 51.2972 19.3822 51.9133 20.1343 51.9133H23.401C24.1524 51.9133 24.7619 51.2972 24.7619 50.5378C24.7619 49.7776 24.1524 49.1622 23.401 49.1622H20.1343Z" fill="white"/>
<path d="M20.2253 55.3937C20.2253 54.6342 19.6158 54.0182 18.8637 54.0182H14.3269C13.5756 54.0182 12.9661 54.6342 12.9661 55.3937C12.9661 56.1539 13.5756 56.7699 14.3269 56.7699H18.8637C19.6158 56.7699 20.2253 56.1539 20.2253 55.3937Z" fill="white"/>
<path d="M21.0418 59.0483H18.6826C17.9305 59.0483 17.321 59.6637 17.321 60.4239C17.321 61.1833 17.9305 61.7994 18.6826 61.7994H21.0418C21.7932 61.7994 22.4027 61.1833 22.4027 60.4239C22.4027 59.6637 21.7932 59.0483 21.0418 59.0483Z" fill="white"/>
<path d="M40.278 59.0483H35.7413C34.9899 59.0483 34.3804 59.6637 34.3804 60.4239C34.3804 61.1833 34.9899 61.7994 35.7413 61.7994H40.278C41.0301 61.7994 41.6389 61.1833 41.6389 60.4239C41.6389 59.6637 41.0301 59.0483 40.278 59.0483Z" fill="white"/>
<path d="M35.288 55.3937C35.288 54.6342 34.6785 54.0182 33.9264 54.0182H23.0379C22.2865 54.0182 21.677 54.6342 21.677 55.3937C21.677 56.1539 22.2865 56.7699 23.0379 56.7699H33.9264C34.6785 56.7699 35.288 56.1539 35.288 55.3937Z" fill="white"/>
<path d="M31.5671 59.0483H25.0344C24.2823 59.0483 23.6729 59.6637 23.6729 60.4239C23.6729 61.1833 24.2823 61.7994 25.0344 61.7994H31.5671C32.3192 61.7994 32.9287 61.1833 32.9287 60.4239C32.9287 59.6637 32.3192 59.0483 31.5671 59.0483Z" fill="white"/>
<path d="M8.52004 40.3863H12.3309C13.0823 40.3863 13.6918 39.7702 13.6918 39.0108C13.6918 38.2506 13.0823 37.6353 12.3309 37.6353H8.52004C7.76794 37.6353 7.15845 38.2506 7.15845 39.0108C7.15845 39.7702 7.76794 40.3863 8.52004 40.3863Z" fill="white"/>
<path d="M31.4763 39.0108C31.4763 38.2506 30.8676 37.6353 30.1154 37.6353H16.1419C15.3905 37.6353 14.781 38.2506 14.781 39.0108C14.781 39.7702 15.3905 40.3863 16.1419 40.3863H30.1154C30.8676 40.3863 31.4763 39.7702 31.4763 39.0108Z" fill="white"/>
<path d="M28.9362 43.8667C28.9362 43.1073 28.3268 42.4912 27.5747 42.4912H14.3269C13.5756 42.4912 12.9661 43.1073 12.9661 43.8667C12.9661 44.6269 13.5756 45.243 14.3269 45.243H27.5747C28.3268 45.243 28.9362 44.6269 28.9362 43.8667Z" fill="white"/>
<path d="M31.3863 45.243H33.9264C34.6785 45.243 35.288 44.6269 35.288 43.8667C35.288 43.1073 34.6785 42.4912 33.9264 42.4912H31.3863C30.6341 42.4912 30.0247 43.1073 30.0247 43.8667C30.0247 44.6269 30.6341 45.243 31.3863 45.243Z" fill="white"/>
<path d="M62.3055 53.1783H53.5952C52.8431 53.1783 52.2336 53.7944 52.2336 54.5539C52.2336 55.3141 52.8431 55.9294 53.5952 55.9294H62.3055C63.0576 55.9294 63.6671 55.3141 63.6671 54.5539C63.6671 53.7944 63.0576 53.1783 62.3055 53.1783Z" fill="white"/>
<path d="M84.4459 53.1783H67.2056C66.4542 53.1783 65.8447 53.7944 65.8447 54.5539C65.8447 55.3141 66.4542 55.9294 67.2056 55.9294H84.4459C85.198 55.9294 85.8075 55.3141 85.8075 54.5539C85.8075 53.7944 85.198 53.1783 84.4459 53.1783Z" fill="white"/>
<path d="M62.3055 58.4976H53.5952C52.8431 58.4976 52.2336 59.1136 52.2336 59.8738C52.2336 60.6333 52.8431 61.2493 53.5952 61.2493H62.3055C63.0576 61.2493 63.6671 60.6333 63.6671 59.8738C63.6671 59.1136 63.0576 58.4976 62.3055 58.4976Z" fill="white"/>
<path d="M84.4459 58.4976H67.2056C66.4542 58.4976 65.8447 59.1136 65.8447 59.8738C65.8447 60.6333 66.4542 61.2493 67.2056 61.2493H84.4459C85.198 61.2493 85.8075 60.6333 85.8075 59.8738C85.8075 59.1136 85.198 58.4976 84.4459 58.4976Z" fill="white"/>
<path d="M85.8486 25.0003C85.8486 23.0403 84.2713 21.4453 82.3322 21.4453H55.7091C53.7699 21.4453 52.1919 23.0403 52.1919 25.0003V43.6322V43.6336V46.8924C52.1919 48.8524 53.7699 50.4474 55.7091 50.4474H82.3322C84.2713 50.4474 85.8486 48.8524 85.8486 46.8924V25.0003ZM83.1269 46.8924C83.1269 47.3356 82.77 47.6956 82.3322 47.6956H55.7091C55.2706 47.6956 54.9144 47.3356 54.9144 46.8924V44.2031L64.8833 34.1319L71.7637 41.9691C72.2625 42.5378 73.1231 42.5894 73.6851 42.0853C74.2477 41.5811 74.2988 40.7119 73.8 40.1432L73.1756 39.4325L76.2522 36.3243L83.1269 44.1557V46.8924ZM83.1269 40.0098L77.8884 34.043C77.496 33.5962 76.9319 33.3294 76.3409 33.3115C75.747 33.2943 75.1709 33.5259 74.7529 33.9483L71.3656 37.3699L66.5195 31.8506C66.1271 31.4031 65.5631 31.1363 64.972 31.1191C64.3817 31.1026 63.802 31.3328 63.3841 31.7552L54.9144 40.3124V25.0003C54.9144 24.5571 55.2706 24.1964 55.7091 24.1964H82.3322C82.7707 24.1964 83.1269 24.5571 83.1269 25.0003V40.0098Z" fill="white"/>
</g>
<defs>
<clipPath id="clip0">
<rect width="93" height="94" fill="white"/>
</clipPath>
</defs>
</svg>
